<svg width="1024" height="820" viewBox="0 0 1024 820" fill="none" xmlns="http://www.w3.org/2000/svg">
<g clip-path="url(#clip0_24_141)">
<path d="M281.273 0.542639C302.868 -2.88605 329.743 4.06524 347.328 16.9405C373.506 36.104 397.642 59.0546 422.568 79.8356C460.534 111.487 499.981 142.581 534.94 177.479C541.091 185.381 544.054 197.268 542.524 206.877C540.939 216.824 535.683 222.317 529.46 229.113C513.065 247.015 490.185 254.572 470.196 267.162C468.028 268.527 465.115 270.677 464.695 273.18C469.418 276.743 498.684 284.656 505.266 283.619C513.326 282.349 523.763 278.387 532.521 277.163C562.867 272.921 592.1 286.343 616.823 302.649C625.832 308.638 634.638 317.335 643.317 324.058C659.246 313.701 670.192 300.943 690.045 293.721C702.73 289.108 721.148 287.063 732.001 281.053C737.673 277.912 746.293 267.572 755.079 262.33C791.913 240.361 819.33 254.158 854.91 262.972C866.947 254.831 878.532 248.744 893.468 246.745C918.509 243.395 944.102 242.6 965.614 257.476C982.258 268.985 980.27 277.925 988.921 288.28C1002.81 303.622 1020.71 315.997 1023.57 338.281C1028.78 378.908 983.548 399.246 956.615 419.08C950.167 423.828 945.277 435.028 940.105 441.356C921.722 463.847 901.747 479.959 872.27 484.072C870.294 495.24 868.684 508.562 860.396 517.242C831.044 547.017 783.091 532.714 748.67 521.414C742.327 519.331 722.757 510.267 718.837 515.749C720.232 521.516 741.71 536.712 748.457 543.795C766.638 562.888 780.807 578.669 794.456 601.635C799.798 610.621 808.569 629.271 814.63 635.782C826.873 648.937 849.733 655.633 859.263 673.294C862.907 680.048 864.908 689.448 862.209 696.747C851.966 724.443 812.585 741.27 786.273 748.244C781.343 750.264 753.101 754.747 750.368 757.56C737.075 771.246 730.474 780.465 712.889 790.394C696.82 798.94 681.344 803.517 663.804 807.802C598.062 823.898 529.375 823.62 463.765 806.996C450.827 803.854 436.758 800.249 424.776 794.26C415.311 789.53 406.382 775.311 396.969 771.473C386.586 767.237 370.625 769.261 359.045 766.654C294.718 752.175 218.195 750.044 163.147 710.72C139.645 693.048 140.563 665.616 138.1 640.126C158.438 640.078 179.666 642.204 201.636 642.259C201.569 639.212 201.381 632.539 201.514 629.708C203.779 581.289 266.286 536.129 304.982 514.453C325.087 502.864 348.907 496.085 367.621 482.6C371.136 480.067 368.163 471.03 364.934 470.139C332.887 461.288 287.75 491.184 257.804 502.553C210.891 520.366 169.302 527.875 125.4 499.742C124.917 493.283 124.177 485.764 124.907 479.323C127.516 456.313 152.081 460.495 160.661 441.753C164.562 433.23 162.421 425.792 163.086 416.642C164.368 398.968 176.553 383.962 186.494 370.115C151.052 369.597 129.157 371.205 98.4171 349.932C83.5236 339.626 71.8369 326.027 62.6957 310.418C49.5542 287.976 39.2342 252.293 29.7825 227.102C21.6284 205.377 3.50324 163.968 0.378865 143.679C-1.15649 133.698 1.88738 124.267 8.09587 116.464C45.5864 69.3464 219.558 7.99798 281.273 0.542639Z" fill="#F1F0F1"/>
<path d="M88.9865 108.18C123.566 84.0287 229.137 47.1364 272.199 38.2755C284.701 35.7034 298.009 33.9105 310.777 34.9936C311.162 35.0263 311.547 35.0378 311.93 35.0821C317.164 35.6746 325.318 43.0157 329.441 46.3554C350.057 63.0615 369.576 81.2084 389.334 98.9148L455.788 157.805C462.788 164.119 491.844 188.361 496.105 193.576C506.966 203.085 508.574 210.782 496.961 220.776C474.657 239.974 440.706 255.86 414.279 267.859C398.651 275.785 379.052 283.476 362.643 289.89C309.855 310.388 255.501 329.017 199.382 337.507C189.399 339.017 158.375 344.275 151.638 336.611C145.241 329.337 132.133 300.565 128.566 290.627L126.702 288.922C125.422 292.683 121.334 299.309 118.558 302.085C110.269 310.128 100.904 302.891 95.6664 295.309C85.32 280.331 76.2876 261.63 81.2645 243.011C83.9119 233.102 87.6034 223.668 88.8907 213.562C84.7969 205.771 81.9886 200.873 79.4389 192.347L78.7052 188.778C72.6594 178.228 60.6042 153.65 56.5162 142.448C55.2231 139.451 54.2577 137.617 55.7174 134.501C60.6828 123.903 79.1401 113.087 88.9865 108.18Z" fill="#C51220"/>
<path d="M94.6304 141.018C99.2635 131.1 113.839 121.319 123.694 117.169C138.825 110.794 179.322 78.395 194.102 83.1457L194.986 84.8579C190.391 96.4613 156.259 111.105 145.452 117.386C134.935 123.498 123.947 130.028 113.529 136.391C114.943 150.618 115.13 162.539 114.868 176.846C138.541 187.527 133.209 191.96 122.167 210.804C132.837 234.63 136.48 243.216 130.703 270.266C129.553 275.649 126.973 283.893 126.515 289.101C125.228 292.837 121.117 299.418 118.325 302.176C109.99 310.165 100.572 302.976 95.3046 295.445C84.9 280.566 75.8169 261.99 80.8217 243.495C83.4841 233.652 87.1963 224.28 88.4908 214.242C84.374 206.503 81.5499 201.637 78.9858 193.168C81.3785 189.742 85.9345 184.528 89.1169 181.568C100.828 170.674 95.2777 156.409 94.6304 141.018Z" fill="#0F1012"/>
<path d="M78.9858 189.5C88.765 178.423 95.3902 171.645 94.069 155.824C93.5439 149.527 90.365 135.827 96.0679 131.694C121.085 113.556 150.547 98.2032 177.423 82.6877C183.187 79.3607 193.49 76.5535 198.887 80.88C201.986 94.9985 131.225 128.154 117.518 139.246C118.968 152.952 118.882 161.205 117.889 174.97C139.261 184.036 138.035 193.817 125.541 211.319C142.736 245.92 138.516 254.076 128.68 290.672L126.822 288.979C127.277 283.771 129.833 275.527 130.973 270.144C136.699 243.094 133.088 234.508 122.513 210.681C133.457 191.837 138.742 187.403 115.279 176.723C115.539 162.415 115.353 150.494 113.952 136.267C124.277 129.903 135.168 123.373 145.59 117.262C156.301 110.98 190.129 96.3362 194.683 84.7325L193.807 83.0203C179.159 78.2695 139.022 110.669 124.027 117.044C114.259 121.195 99.8139 130.975 95.2221 140.893C95.8637 156.284 101.364 170.55 89.7579 181.445C86.6038 184.405 82.0884 189.618 79.7171 193.044L78.9858 189.5Z" fill="#E3A8AF"/>
<path d="M496.076 194.672C506.973 204.145 508.585 211.813 496.935 221.769C474.559 240.893 440.498 256.719 413.986 268.672C418.218 262.606 480.476 235.759 499.31 216.119C499.952 205.345 500.419 204.565 496.076 194.672Z" fill="#9D2B2A"/>
<path d="M56.4712 142.672C55.2162 139.698 54.2791 137.879 55.6959 134.787C60.5151 124.272 78.4292 113.541 87.9858 108.672C85.2192 114.644 78.8215 113.997 77.2783 117.773L79.8125 118.181C78.0759 122.827 66.5596 134.245 62.2275 137.28C59.7918 136.919 59.1987 136.566 56.856 137.047L56.4712 142.672Z" fill="#9D2B2A"/>
<path d="M495.313 477.725C514.427 476.739 515.303 489.706 525.045 490.508C549.168 492.494 569.473 495.726 593.116 501.292C667.126 518.722 725.402 568.206 761.545 634.302C770.113 649.969 780.486 669.298 760.422 680.607C739.573 681.313 731.968 676.476 723.718 657C715.407 637.378 706.438 619.672 693.626 602.562C656.337 553.618 601.169 521.423 540.189 513.023C463.418 501.324 374.153 532.552 310.785 575.076C269.078 603.064 263.861 615.858 254.712 661.836C238.315 645.986 242.574 625.344 255.051 608.371C292.374 557.6 356.762 528.6 414.666 508.014C434.121 501.098 460.406 497.596 480.595 494.083C485.287 488.048 489.148 482.21 495.313 477.725Z" fill="#0F1012"/>
<path d="M912.504 285.819C945.325 284.46 966.856 292.102 942.548 325.8C952.846 325.972 975.388 328.335 980.499 336.012C1004.56 372.171 942.69 389.489 925.679 406.764C910.8 421.871 908.969 432.418 897.493 442.976C877.835 461.061 852.439 466.946 826.952 467.672C820.004 467.624 804.473 464.748 799.662 459.811L799.978 458.289C806.175 454.209 838.048 449.82 848.012 445.692C870.802 436.252 875.311 417.425 893.315 400.246C914.757 379.787 949.541 372.989 961.467 347.844C935.227 329.139 903.444 352.461 877.486 363.27C892.397 336.469 922.541 328.277 935.069 303.696C935.674 302.509 934.896 301.882 934.115 300.498C922.071 293.742 898.834 302.171 887.987 309.458C875.578 317.796 864.758 331.834 849.839 336.213C849.996 336.167 847.262 336.255 847.11 335.913C842.542 326.026 838.956 314.023 830.285 306.767C813.69 292.885 795.555 305.443 784.591 319.287C782.18 322.585 780.035 326.079 778.666 329.938C777.104 334.342 775.888 340.514 778.446 344.835C785.151 356.162 804.695 339.671 815.585 343.837C818.949 345.126 821.202 347.767 822.449 351.058C825.453 358.985 825.036 370.288 821.254 377.821C817.106 386.078 809.983 392.997 801.061 395.781C743.721 413.679 756.291 351.194 736.417 341.685C732.926 340.017 729.026 340.546 725.57 342.031C719.701 344.552 714.222 350.284 712.031 356.269C709.39 363.474 709.221 371.641 710.662 379.12C717.471 414.47 760.517 413.748 765.455 427.305C766.703 430.73 766.033 433.339 764.503 436.498C761.947 438.415 763.321 438.052 760.316 437.852C757.021 433.723 750.68 422.465 747.433 420.415C730.038 409.434 703.654 404.084 691.868 385.607C680.173 367.27 690.69 339.866 710.655 331.049C720.701 326.611 731.813 323.772 743.078 327.261C761.795 333.866 753.766 357.976 760.308 371.859C765.092 382.398 783.249 386.645 792.952 381.62C799.493 378.234 810.691 361.175 805.757 353.759C800.493 352.559 790.064 359.772 780.818 357.545C765.419 354.258 758.583 343.547 762.45 328.293C771.8 291.398 820.093 275.97 843.884 309.544C847.204 314.231 849.799 319.415 852.489 324.409C875.179 306.121 879.737 291.635 912.504 285.819Z" fill="#0F1012"/>
<path d="M189.986 684.672C199.326 687.428 209.052 693.622 218.992 695.438C367.854 722.627 522.608 735.073 673.044 713.334C711.007 707.847 746.408 695.462 783.568 687.166C795.058 684.602 831.906 683.099 812.38 703.819C787.923 722.051 730.46 732.885 699.157 737.374C657.875 743.291 617.412 746.744 575.732 747.535C496.672 749.034 256.485 738.704 196.847 693.196C193.937 690.976 190.509 688.364 189.986 684.672Z" fill="#0F1012"/>
<path d="M671.608 366.672L672.986 367.062L672.406 369.066C641.398 403.448 522.733 378.354 485.009 415.631C477.975 422.584 475.669 431.926 469.614 439.225C463.221 446.929 448.152 443.573 439.248 445.411C427.385 447.651 417.881 455.179 405.582 453.177C392.538 451.054 382.581 442.158 369.647 439.867C324.895 434.387 283.209 463.516 242.557 477.17C221.716 484.169 207.48 486.433 186.37 486.672C181.242 486.605 178.71 486.861 174.235 484.49L173.986 483.07C176.675 481.36 182.856 480.042 186.27 479.342C238.233 468.686 275.178 424.057 327.496 413.764C345.705 410.183 363.672 408.874 382.213 409.918C397.684 410.789 412.756 414.102 428.288 415.102C436.088 397.811 441.895 399.942 457.215 391.359C523.403 354.269 599.029 372.821 671.608 366.672Z" fill="#0F1012"/>
<path d="M687.759 753.672C691.272 753.727 692.966 754.701 694.986 757.36L694.501 759.916C687.45 768.539 652.767 779.097 641.676 781.042C587.12 790.599 502.91 792.126 452.605 769.932C448.738 768.128 444.457 766.98 445.039 762.281C450.85 757.462 485.304 767.882 496.093 769.97C544.822 779.4 595.226 781.453 643.539 768.507C659.12 764.332 670.373 757.259 687.759 753.672Z" fill="#0F1012"/>
<path d="M720.815 440.672C730.869 446.846 725.95 459.078 751.001 470.847C775.864 482.614 806.457 482.214 830.297 494.676C835.171 497.225 828.181 504.808 825.835 506.724C791.283 516.738 696.922 487.159 720.815 440.672Z" fill="#0F1012"/>
<path d="M215.492 407.306C219.779 400.652 232.664 386.844 241.444 390.185C244.342 397.828 234.867 408.175 230.786 414.667C224.767 431.161 236.203 446.641 228.928 454.909C226.986 455.5 225.364 456.243 223.494 454.986C204.518 442.239 209.225 423.541 215.492 407.306Z" fill="#0F1012"/>
<path d="M214.986 407.309C219.354 400.654 232.486 386.844 241.433 390.186C244.387 397.829 234.731 408.178 230.572 414.672L229.378 414.615C230.092 412.499 230.138 412.467 230.284 410.256C228.352 409.047 219.675 408.458 214.986 407.309Z" fill="#0F1012"/>
<path d="M441.615 363.672C444.128 363.65 447.193 364.482 446.975 367.385C444.327 402.592 396.565 400.172 375.687 385.746C372.681 382.841 369.666 379.449 368.986 375.302C369.248 374.722 369.511 374.144 369.771 373.565C377.927 374.771 394.379 382.742 401.915 383.07C424.151 384.033 424.197 370.662 440.548 364.056C440.904 363.929 441.258 363.801 441.615 363.672Z" fill="#0F1012"/>
<path d="M318.649 351.868C329.751 351.25 337.651 351.479 343.795 362.054C345.221 364.509 345.225 363.599 344.545 366.226C334.12 371.077 320.435 358.501 305.204 377.745C304.027 382.301 305.282 384.71 303.229 388.384C289.952 391.859 273.39 362.991 318.649 351.868Z" fill="#0F1012"/>
<path d="M539.656 309.755C553.038 308.711 569.235 317.722 579.53 325.317C594.446 336.318 604.439 347.894 597.993 366.672C579.878 364.955 586.454 345.197 575.291 333.602C567.203 325.201 542.139 320.26 537.986 312.657L539.656 309.755Z" fill="#0F1012"/>
<path d="M463.847 317.08C473.815 316.111 481.245 316.639 490.372 321.188C499.973 325.974 500.162 335.81 492.804 342.741C491.477 342.53 483.159 335.772 480.139 334.227C467.66 330.33 459.188 335.057 450.335 343.672C443.553 327.778 446.595 320.488 463.847 317.08Z" fill="#0F1012"/>
<path d="M453.26 463.948C456.582 463.546 457.807 463.651 461.056 463.835C464.066 465.791 463.169 464.451 463.986 467.88C459.524 480.995 441.217 482.218 430.063 479.47C426.105 477.908 420.158 475.994 417.986 472.121C420.778 467.69 435.179 469.185 441.213 467.656C446.056 466.429 448.529 465.657 453.26 463.948Z" fill="#0F1012"/>
</g>
<defs>
<clipPath id="clip0_24_141">
<rect width="1024" height="820" fill="white"/>
</clipPath>
</defs>
</svg>
